<?xml version="1.0" encoding="iso-8859-1"?>
<!-- Generator: Adobe Illustrator 16.0.0, SVG Export Plug-In . SVG Version: 6.00 Build 0)  -->
<!DOCTYPE svg PUBLIC "-//W3C//DTD SVG 1.1//EN" "http://www.w3.org/Graphics/SVG/1.1/DTD/svg11.dtd">
<svg version="1.1" id="Capa_1" xmlns="http://www.w3.org/2000/svg" xmlns:xlink="http://www.w3.org/1999/xlink" x="0px" y="0px"
	 width="612px" height="612px" viewBox="0 0 612 612" style="enable-background:new 0 0 612 612;" xml:space="preserve">
<g>
	<g id="Shape_6">
		<g>
			<path d="M114.04,302.467c-6.282-0.797-12.113,3.66-12.921,10c-0.809,6.327,3.672,12.112,10,12.921
				c43.406,5.531,82.747,24.85,113.763,55.877c30.981,30.98,50.288,70.253,55.854,113.578c0.739,5.819,5.716,10.08,11.432,10.08
				c0.485,0,0.981-0.034,1.49-0.092c6.328-0.809,10.796-6.594,9.977-12.922c-6.212-48.44-27.806-92.343-62.424-126.973
				C206.544,330.261,162.561,308.656,114.04,302.467z M93.913,181.417c-6.305-0.796-12.102,3.661-12.921,10
				c-0.808,6.328,3.672,12.113,10,12.921c82.516,10.52,157.295,47.239,216.255,106.199
				c58.879,58.879,95.588,133.531,106.165,215.897c0.738,5.819,5.716,10.069,11.432,10.069c0.496,0,0.981-0.023,1.489-0.093
				c6.328-0.809,10.797-6.594,9.977-12.921c-11.235-87.47-50.219-166.753-112.734-229.281
				C260.966,231.59,181.556,192.595,93.913,181.417z M456.563,0H155.437C69.733,0,0,69.733,0,155.437v301.127
				C0,542.267,69.733,612,155.437,612h301.127C542.267,612,612,542.267,612,456.563V155.437C612,69.733,542.267,0,456.563,0z
				 M588.905,456.563c0,72.967-59.375,132.342-132.342,132.342H155.437c-72.967,0-132.342-59.375-132.342-132.342V155.437
				c0-72.967,59.375-132.342,132.342-132.342h301.127c72.967,0,132.342,59.375,132.342,132.342V456.563z M150.194,415.109
				c-34.399,0-62.377,27.99-62.377,62.39c0,34.398,27.979,62.389,62.377,62.389c34.399,0,62.39-27.99,62.39-62.389
				C212.583,443.1,184.593,415.109,150.194,415.109z M150.194,516.794c-21.662,0-39.283-17.621-39.283-39.295
				c0-21.675,17.621-39.296,39.283-39.296c21.674,0,39.295,17.621,39.295,39.296C189.489,499.173,171.856,516.794,150.194,516.794z"
				/>
		</g>
	</g>
</g>
<g>
</g>
<g>
</g>
<g>
</g>
<g>
</g>
<g>
</g>
<g>
</g>
<g>
</g>
<g>
</g>
<g>
</g>
<g>
</g>
<g>
</g>
<g>
</g>
<g>
</g>
<g>
</g>
<g>
</g>
</svg>
